<svg xmlns="http://www.w3.org/2000/svg" version="1.1" xmlns:xlink="http://www.w3.org/1999/xlink" width="512" height="512" x="0" y="0" viewBox="0 0 511.999 511" style="enable-background:new 0 0 512 512" xml:space="preserve" class=""><g><path fill="#c0694e" d="M432.05 471.172H137.575V192.605a6.008 6.008 0 0 1 6.008-6.011h289.203a6.012 6.012 0 0 1 6.012 6.011v271.82a6.745 6.745 0 0 1-6.746 6.747zm0 0" opacity="1" data-original="#c0694e"></path><path fill="#c97e67" d="M378.813 191.973v279.203H137.573V191.973a5.38 5.38 0 0 1 5.38-5.375h230.472a5.382 5.382 0 0 1 5.387 5.375zm0 0" opacity="1" data-original="#c97e67"></path><path fill="#d29380" d="M378.813 191.973v279.203h-210.22V191.973a5.377 5.377 0 0 1 5.376-5.375h199.457a5.382 5.382 0 0 1 5.387 5.375zm0 0" opacity="1" data-original="#d29380"></path><path fill="#954c35" d="m290.777 267.402-30.78-24.082a2.932 2.932 0 0 0-3.61 0l-30.782 24.082c-1.921 1.5-4.734.133-4.734-2.308v-78.5h74.64v78.5c0 2.441-2.812 3.812-4.734 2.308zm0 0" opacity="1" data-original="#954c35"></path><path fill="#f2d1a5" d="M291.598 406.36h-14.375c7.078 0 13.164 4.574 15.304 10.949 3.555 10.468-4.21 21.39-15.293 21.39l-50.406.031c4.469 0 8.5 1.801 11.438 4.739 10.12 10.12 2.968 27.613-11.426 27.636H113.477a37.975 37.975 0 0 1-16.387-3.703c-12.84-6.097-21.735-19.18-21.797-34.336l.156-85.457v-.062c.012-3.227 2.7-5.82 5.934-5.82 6.148-.758 29.492 4.691 40.762-17.36l18.351-36.043c8.145-16.023 35.356 6.117 24.059 28.32l-7.485 14.711c-2.418 4.747 1.035 10.372 6.371 10.372l97.149-.02c9.672 0 17.2 8.371 16.594 16.824-.332 8.446-7.247 15.29-15.735 15.508-.137.012-.281.012-.414.012 3.3-.004-9.594 0 29.942-.012 7.89 0 16.496 6.797 16.585 16.813.06 8.796-6.515 15.507-15.964 15.507zm0 0" opacity="1" data-original="#f2d1a5"></path><g fill="#f2bb88"><path d="M293.363 423.223c-.351 8.601-7.433 15.476-16.129 15.476l-50.406.031h-34.48a7.755 7.755 0 0 1-7.754-7.753 7.75 7.75 0 0 1 7.754-7.754zM307.563 390.848c.058 8.8-6.516 15.511-15.965 15.511h-85.25a7.754 7.754 0 0 1-7.758-7.757c0-4.278 3.476-7.754 7.758-7.754zM277.184 358.527c-.332 8.446-7.246 15.293-15.739 15.508h-53.879a7.75 7.75 0 0 1-7.754-7.754 7.758 7.758 0 0 1 7.754-7.754zm0 0" fill="#f2bb88" opacity="1" data-original="#f2bb88"></path></g><path fill="#dce6eb" d="M63.172 463.422h-49.41C6.192 463.422 0 457.227 0 449.656V354.32c0-7.57 6.191-13.761 13.762-13.761h49.41c6.668 0 12.125 5.453 12.125 12.125v98.613c0 6.668-5.457 12.125-12.125 12.125zm0 0" opacity="1" data-original="#dce6eb"></path><path fill="#6dc54a" d="M82.54 484.094H52.632c-6.668 0-12.125-5.457-12.125-12.125V332.008c0-6.668 5.457-12.125 12.125-12.125h29.906c6.668 0 12.125 5.457 12.125 12.125v139.96c0 6.669-5.457 12.126-12.125 12.126zm0 0" opacity="1" data-original="#6dc54a"></path><path fill="#5db33a" d="M94.66 454.457v17.516c0 6.66-5.45 12.117-12.117 12.117H52.629c-6.668 0-12.117-5.457-12.117-12.117V332.008c0-6.668 5.449-12.13 12.117-12.13h17.516v122.45c0 6.672 5.457 12.129 12.128 12.129zm0 0" opacity="1" data-original="#5db33a"></path><path fill="#269ab1" d="M479.75 188.477c-15.621 15.625-34.758 25.57-54.867 29.84-35.258 7.495-73.48-2.45-100.867-29.84-43-42.997-43-112.723 0-155.73C351.402 5.354 389.625-4.579 424.883 2.917c20.11 4.27 39.246 14.203 54.867 29.828 43 43.008 43 112.73 0 155.73zm0 0" opacity="1" data-original="#269ab1" class=""></path><path fill="#44bfd7" d="M479.75 188.477c-15.621 15.625-34.758 25.57-54.867 29.84-20.11-4.27-39.246-14.215-54.86-29.84-43.007-42.997-43.007-112.723 0-155.73 15.614-15.626 34.75-25.56 54.86-29.829 20.11 4.27 39.246 14.203 54.867 29.828 43 43.008 43 112.73 0 155.73zm0 0" opacity="1" data-original="#44bfd7" class=""></path><path fill="#def4f8" d="M464.031 63.344c-3.199-2.844-8.101-2.567-10.949.633l-71.437 80.168-30.946-34.938a7.757 7.757 0 0 0-10.949-.664 7.755 7.755 0 0 0-.66 10.945l31.23 35.262a15.161 15.161 0 0 0 11.301 5.098h.024c4.308 0 8.421-1.848 11.293-5.067l71.722-80.488c2.852-3.195 2.567-8.098-.629-10.95zm0 0" opacity="1" data-original="#def4f8" class=""></path></g></svg>