<?xml version="1.0" encoding="UTF-8"?>
<svg id="Layer_1" xmlns="http://www.w3.org/2000/svg" version="1.1" viewBox="0 0 100 100">
  <!-- Generator: Adobe Illustrator 30.0.0, SVG Export Plug-In . SVG Version: 2.1.1 Build 123)  -->
  <defs>
    <style>
      .st0 {
        fill: #00959b;
      }
    </style>
  </defs>
  <path class="st0" d="M25,90c5.5,0,10-4.5,10-10H15c0,5.5,4.5,10,10,10Z"/>
  <path class="st0" d="M72.2,80l-3.2,6.4c1.8,2.2,4.5,3.6,7.6,3.6,5.5,0,10-4.5,10-10h-14.5Z"/>
  <path class="st0" d="M58.3,18.3c0,4.6-3.7,8.3-8.3,8.3s-8.3-3.7-8.3-8.3,3.7-8.3,8.3-8.3,8.3,3.7,8.3,8.3Z"/>
  <path class="st0" d="M79.1,53.3h4.2v-6.7h-6.7v-6.7l-3.3-13.3h-8.3l-1.7,6.7h6.5l1.7,6.7h-8.2l-21.7-11.7-11.7,18.3v-16.7H10v23.3h33.6l6.7,20h7l-8.9-26.7h-10.5l6.1-9.5,17.7,9.5h8.3v5c0,3.7-1.3,9.3-3,12.6l-7,14h-13.3l-6.7-20h-20c-5.5,0-10,4.5-10,10v6.7h28.5l3.3,10s22.3,0,22.3,0c0,0,5-10,5-10h20.9v-3.3c0-7-4.1-13.4-10.9-18.3Z"/>
  <path class="st0" d="M10,13.3v-3.3h23.3v5l-23.3-1.7Z"/>
  <path class="st0" d="M16.7,23.3v-3.3h20v5l-20-1.7Z"/>
</svg>